<svg width="1024" height="1024" viewBox="0 0 1024 1024" fill="none" xmlns="http://www.w3.org/2000/svg">
<rect width="1024" height="1024" rx="120" fill="white"/>
<path d="M633.963 102.267C651.486 94.8033 666.8 100.266 675.442 117.245C682.365 130.845 682.99 145.572 682.888 160.43C682.779 176.294 679.935 191.725 675.622 206.901C674.18 211.975 674.739 214.958 679.988 217.863C700.191 229.045 710.405 247.063 712.932 269.609C713.374 273.554 714.792 275.816 718.307 277.249C761.965 295.059 768.179 357.357 731.569 386.409C730.464 387.287 729.488 388.329 728.11 389.613C733.09 394.806 739.253 397.693 744.952 401.105C771.375 416.923 788.13 439.276 793.369 470.063C801.218 516.185 780.368 558.304 738.777 579.69C720.695 588.988 701.213 593.763 681.519 597.936C679.389 598.387 677.28 598.994 675.128 599.265C669.776 599.939 669.064 602.522 670.807 607.342C675.896 621.42 681.58 635.281 683.047 650.497C684.093 661.356 682.639 671.734 679.782 682.009C678.561 686.401 679.292 689.661 681.905 693.375C703.135 723.55 707.687 755.933 693.808 790.408C692.037 794.806 692.155 798.355 693.926 802.747C700.757 819.69 705.43 836.968 703.189 855.712C699.905 883.175 686.471 903.184 661.315 915.918C647.372 922.401 633.122 924.673 618.429 924.67C534.569 924.651 450.708 924.466 366.849 924.669C336.478 924.743 307.518 920.241 281.641 903.004C259.037 887.947 242.002 868.949 237.357 841.089C235.147 827.833 237.343 815.015 241.863 802.576C243.387 798.383 243.432 794.95 241.078 790.981C224.624 763.233 225.516 734.77 240.505 707.243C247.564 694.28 248.913 684.281 241.861 670.292C227.597 641.994 231.951 613.347 247.689 586.376C250.249 581.987 250.745 578.602 248.294 573.801C233.307 544.452 233.974 515.062 249.719 486.225C252.563 481.015 253.006 477.164 250.287 471.654C234.2 439.054 241.522 400.977 269.192 372.901C273.804 368.221 275.69 364.253 274.718 357.195C268.464 311.808 287.853 277.629 329.404 260.048C334.906 257.72 335.194 254.212 335.591 249.334C339.661 199.355 356.703 155.096 393.818 120.007C404.346 110.054 416.339 102.267 430.942 99.7688C446.992 97.0235 458.978 103.341 465.873 118.113C472.185 131.635 473.052 146.125 472.259 160.739C471.998 165.542 471.449 170.288 472.158 175.938C489.151 173.52 504.63 177.251 519.079 185.565C521.649 187.043 523.708 185.551 525.791 184.291C537.366 177.294 549.689 172.571 563.374 172.117C568.664 171.942 572.024 169.591 574.895 164.906C586.71 145.628 600.097 127.542 617.459 112.742C622.473 108.468 627.887 104.855 633.963 102.267ZM437.364 139.458C436.276 134.529 434.192 133.452 429.784 135.76C422.819 139.406 416.606 144.162 411.506 149.97C377.12 189.13 365.219 235.287 370.739 286.28C372.224 299.996 370.232 306.623 354.787 315.282C347.323 319.467 343.512 317.346 340.6 309.08C338.956 304.415 339.334 299.064 335.913 294.487C328.187 297.992 322.231 303.115 317.582 309.76C306.282 325.912 305.593 343.46 310.794 361.819C314.943 376.461 313.807 380.286 301.909 389.203C276.393 408.329 266.969 440.92 287.952 468.218C293.209 475.057 293.067 482.612 287.995 489.838C286.048 492.613 284.103 495.393 282.248 498.231C267.936 520.12 268.138 543.347 282.801 564.907C292.115 578.603 292.068 582.094 282.39 595.386C262.525 622.668 262.554 645.701 282.488 672.641C290.91 684.022 291.09 689.688 282.989 701.566C276.83 710.596 270.974 719.767 267.226 730.113C261.033 747.205 261.917 763.743 273.251 778.31C281.39 788.77 282.366 798.245 276.303 810.315C266.166 830.492 269.933 847.333 286.444 862.887C304.65 880.037 326.343 889.304 351.45 889.384C419.308 889.601 487.167 889.557 555.025 889.576C578.533 889.583 602.045 889.721 625.548 889.344C650.263 888.947 665.476 875.608 668.983 851.232C671.181 835.962 666.509 821.933 658.697 809.051C653.46 800.414 653.715 792.603 658.536 783.843C673.367 756.894 670.427 730.111 649.934 707.411C642.067 698.698 639.529 690.212 644.597 679.087C651.486 663.965 650.691 648.52 644.073 633.32C641.464 627.325 638.291 621.437 636.722 615.163C634.695 607.064 630.433 606.078 622.938 607.258C603.567 610.307 584.075 612.749 564.394 609.655C556.462 608.409 548.567 607.003 541.607 602.798C535.915 599.359 536.107 594.911 541.981 591.853C546.308 589.6 551.084 588.74 555.953 588.301C581.72 585.977 607.642 585.328 633.228 581.054C660.168 576.554 687.436 573.523 713.237 563.819C725.329 559.271 736.759 553.439 745.939 544.051C747.944 542 751.034 539.96 748.903 536.283C745.822 535.225 744.052 537.339 742.106 538.531C732.672 544.308 722.438 546.87 711.515 545.544C696.129 543.676 683.517 536.621 674.369 523.908C670.719 518.836 669.978 513.505 674.851 508.804C679.575 504.246 684.889 504.599 690.07 508.216C692.448 509.876 694.731 511.69 696.936 513.575C701.073 517.114 705.818 519.525 711.015 520.888C725.716 524.744 735.655 517.216 735.834 502.257C735.851 500.803 735.704 499.325 735.916 497.9C736.89 491.353 734.071 487.637 727.968 485.172C719.45 481.732 711.046 477.874 702.988 473.472C696.773 470.076 694.874 463.448 697.379 457.924C699.906 452.353 705.763 450.193 712.879 452.415C715.409 453.206 717.815 454.411 720.249 455.49C727.554 458.731 734.785 462.15 742.159 465.223C749.981 468.482 754.194 462.331 758.956 458.155C763.572 454.107 760.228 450.083 758.107 446.477C752.304 436.614 743.586 429.709 734.069 423.71C716.661 412.737 698.299 403.234 682.201 390.239C669.661 380.117 658.041 369.148 651.881 353.767C648.818 346.119 650.052 343.532 658.501 339.881C665.194 339.579 669.877 343.202 674.152 347.76C679.288 353.236 684.479 358.663 689.745 364.013C692.041 366.345 694.521 367.494 698.201 366.381C713.786 361.666 721.948 349.557 720.953 331.96C720.153 317.806 711.128 308.625 695.334 305.895C679.499 303.158 676.058 298.477 678.357 282.801C681.136 263.845 672.405 248.471 655.855 244.001C648.003 241.881 639.73 242.047 632.235 245.037C615.178 251.844 607.833 247.565 602.249 230.373C602.175 230.144 602.046 229.933 601.96 229.707C591.907 203.235 558.143 200.634 541.04 214.896C538.251 217.221 535.687 219.814 532.944 222.197C525.069 229.043 518.89 229.161 510.954 222.455C507.247 219.323 503.614 216.125 499.319 213.8C490.514 209.034 481.464 208.154 472.05 211.949C468.129 213.531 465.742 215.788 465.568 220.472C465.308 227.471 464.446 234.454 463.706 241.429C461.539 261.858 460.802 262.641 440.287 267.277C430.575 269.471 428.554 267.959 428.714 257.803C429.134 231.141 433.512 204.867 436.607 178.463C438.124 165.528 440.256 152.558 437.364 139.458ZM769.191 484.955C768.851 483.736 769.5 481.377 767.277 481.988C764.448 482.765 761.563 484.671 761.31 487.716C760.551 496.843 760.189 506.024 761.57 515.145C761.746 516.302 762.725 517.236 764.673 516.884C769.248 507.211 769.38 496.666 769.191 484.955ZM520.283 394.878C550.619 396.611 562.433 428.122 547.888 449.104C539.887 460.644 525.231 465.956 511.374 462.148C497.149 458.238 487.044 445.135 486.509 429.903C486.004 415.538 494.646 402.245 507.642 397.4C511.517 395.955 515.48 394.924 520.283 394.878ZM645.042 134.824C643.912 135.413 642.724 135.795 641.832 136.533C627.476 148.421 616.591 163.198 606.73 178.826C604.727 182 606.517 183.684 608.947 185.303C614.24 188.828 618.576 193.39 623.368 198.973C624.356 200.348 625.388 201.693 626.322 203.104C628.484 206.368 630.389 209.546 635.385 208.782C640.275 208.035 640.589 204.223 641.595 200.901C647.181 182.447 649.996 163.646 648.265 144.32C647.966 140.987 647.86 137.59 645.042 134.824Z" fill="black"/>
</svg>
