<svg width="1024" height="1024" viewBox="0 0 1024 1024" fill="none" xmlns="http://www.w3.org/2000/svg">
<rect width="1024" height="1024" rx="120" fill="#272524"/>
<path d="M619.201 162.687C634.344 156.237 647.578 160.957 655.047 175.63C661.029 187.382 661.569 200.11 661.48 212.949C661.386 226.659 658.93 239.994 655.202 253.109C653.956 257.494 654.438 260.072 658.975 262.582C676.433 272.245 685.261 287.816 687.444 307.299C687.826 310.708 689.052 312.663 692.089 313.902C729.817 329.293 735.186 383.128 703.55 408.235C702.594 408.993 701.751 409.893 700.561 411.002C704.864 415.491 710.19 417.985 715.115 420.934C737.949 434.603 752.429 453.921 756.956 480.526C763.738 520.383 745.72 556.781 709.779 575.262C694.153 583.297 677.316 587.424 660.297 591.03C658.457 591.419 656.635 591.944 654.775 592.178C650.15 592.76 649.535 594.993 651.041 599.158C655.439 611.324 660.351 623.302 661.618 636.451C662.523 645.835 661.266 654.804 658.797 663.683C657.741 667.478 658.373 670.295 660.632 673.505C678.978 699.581 682.912 727.566 670.917 757.359C669.387 761.159 669.489 764.226 671.02 768.022C676.923 782.663 680.961 797.594 679.024 813.792C676.187 837.525 664.577 854.815 642.838 865.82C630.789 871.422 618.475 873.387 605.777 873.384C533.308 873.368 460.838 873.207 388.369 873.383C362.123 873.447 337.097 869.556 314.734 854.66C295.201 841.649 280.481 825.231 276.467 801.156C274.557 789.7 276.454 778.623 280.36 767.874C281.678 764.25 281.716 761.283 279.682 757.853C265.462 733.874 266.234 709.278 279.187 685.49C285.287 674.288 286.452 665.646 280.358 653.557C268.031 629.103 271.795 604.347 285.395 581.04C287.608 577.247 288.035 574.322 285.917 570.173C272.966 544.81 273.542 519.411 287.148 494.491C289.607 489.989 289.99 486.662 287.64 481.9C273.738 453.728 280.066 420.824 303.978 396.561C307.963 392.517 309.592 389.087 308.752 382.988C303.348 343.766 320.104 314.23 356.011 299.036C360.765 297.025 361.014 293.994 361.357 289.779C364.874 246.588 379.602 208.339 411.676 178.017C420.773 169.416 431.137 162.687 443.757 160.529C457.626 158.156 467.984 163.615 473.942 176.38C479.397 188.066 480.148 200.589 479.462 213.218C479.237 217.368 478.761 221.47 479.374 226.352C494.059 224.263 507.435 227.487 519.922 234.671C522.143 235.949 523.922 234.658 525.723 233.57C535.726 227.523 546.375 223.442 558.201 223.05C562.772 222.899 565.675 220.866 568.156 216.818C578.367 200.158 589.935 184.529 604.938 171.74C609.272 168.046 613.95 164.923 619.201 162.687ZM449.307 194.826C448.366 190.567 446.565 189.637 442.756 191.631C436.737 194.782 431.368 198.891 426.961 203.91C397.245 237.751 386.961 277.639 391.731 321.705C393.015 333.559 391.293 339.286 377.945 346.769C371.495 350.385 368.202 348.551 365.686 341.408C364.265 337.377 364.591 332.752 361.635 328.797C354.959 331.827 349.811 336.254 345.794 341.996C336.029 355.954 335.433 371.119 339.928 386.984C343.513 399.638 342.532 402.942 332.25 410.649C310.2 427.176 302.056 455.341 320.188 478.931C324.732 484.841 324.609 491.37 320.227 497.615C318.543 500.013 316.863 502.415 315.26 504.867C302.891 523.784 303.066 543.854 315.737 562.487C323.786 574.322 323.746 577.339 315.382 588.826C298.215 612.403 298.24 632.307 315.467 655.588C322.744 665.423 322.901 670.319 315.9 680.583C310.578 688.387 305.517 696.312 302.278 705.252C296.927 720.023 297.69 734.316 307.485 746.904C314.519 755.943 315.362 764.131 310.122 774.561C301.362 791.997 304.617 806.551 318.886 819.992C334.618 834.813 353.366 842.822 375.062 842.891C433.703 843.078 492.344 843.04 550.985 843.057C571.3 843.063 591.619 843.182 611.93 842.856C633.287 842.513 646.434 830.985 649.465 809.92C651.363 796.725 647.326 784.601 640.576 773.469C636.05 766.005 636.271 759.255 640.437 751.685C653.253 728.396 650.712 705.251 633.003 685.635C626.205 678.105 624.011 670.771 628.391 661.157C634.343 648.09 633.657 634.744 627.938 621.608C625.683 616.427 622.942 611.338 621.586 605.916C619.835 598.918 616.151 598.066 609.674 599.085C592.934 601.72 576.09 603.831 559.082 601.157C552.228 600.08 545.405 598.866 539.39 595.232C534.471 592.26 534.637 588.416 539.713 585.773C543.452 583.826 547.58 583.083 551.787 582.703C574.054 580.695 596.456 580.134 618.566 576.441C641.848 572.552 665.411 569.932 687.708 561.546C698.157 557.616 708.035 552.576 715.968 544.463C717.7 542.691 720.371 540.928 718.529 537.751C715.866 536.837 714.337 538.663 712.654 539.694C704.503 544.685 695.659 546.9 686.22 545.754C672.923 544.14 662.025 538.044 654.119 527.058C650.965 522.675 650.324 518.067 654.535 514.004C658.618 510.065 663.21 510.371 667.688 513.496C669.742 514.931 671.715 516.498 673.62 518.128C677.195 521.186 681.296 523.269 685.787 524.447C698.491 527.778 707.081 521.273 707.235 508.347C707.25 507.091 707.123 505.813 707.307 504.581C708.148 498.924 705.712 495.713 700.438 493.582C693.076 490.609 685.814 487.275 678.851 483.471C673.479 480.536 671.839 474.809 674.004 470.035C676.187 465.221 681.249 463.354 687.398 465.275C689.585 465.958 691.664 466.999 693.768 467.932C700.08 470.732 706.328 473.687 712.701 476.343C719.461 479.16 723.101 473.844 727.217 470.235C731.206 466.737 728.316 463.259 726.482 460.143C721.468 451.62 713.934 445.653 705.71 440.469C690.666 430.986 674.798 422.774 660.887 411.544C650.05 402.797 640.009 393.318 634.686 380.026C632.039 373.417 633.105 371.181 640.406 368.027C646.19 367.765 650.237 370.896 653.932 374.835C658.37 379.567 662.856 384.257 667.406 388.88C669.39 390.896 671.534 391.889 674.714 390.927C688.182 386.852 695.235 376.388 694.376 361.181C693.685 348.95 685.885 341.016 672.236 338.656C658.553 336.291 655.579 332.246 657.565 318.699C659.967 302.318 652.422 289.032 638.119 285.169C631.334 283.337 624.185 283.48 617.708 286.065C602.967 291.946 596.621 288.249 591.796 273.393C591.732 273.195 591.619 273.012 591.545 272.817C582.857 249.94 553.68 247.693 538.9 260.017C536.49 262.027 534.274 264.268 531.904 266.328C525.099 272.244 519.759 272.346 512.901 266.551C509.698 263.844 506.558 261.079 502.847 259.071C495.237 254.952 487.417 254.191 479.281 257.471C475.892 258.837 473.83 260.788 473.68 264.836C473.455 270.885 472.71 276.919 472.07 282.947C470.198 300.601 469.56 301.277 451.832 305.283C443.439 307.18 441.693 305.873 441.831 297.097C442.194 274.057 445.977 251.351 448.652 228.533C449.963 217.355 451.805 206.147 449.307 194.826ZM736.062 493.395C735.767 492.341 736.329 490.303 734.408 490.83C731.963 491.502 729.47 493.15 729.251 495.781C728.595 503.668 728.282 511.602 729.476 519.484C729.627 520.484 730.474 521.292 732.157 520.988C736.111 512.628 736.224 503.515 736.062 493.395ZM518.719 410.69C544.934 412.188 555.144 439.419 542.574 457.55C535.66 467.523 522.994 472.113 511.02 468.823C498.726 465.444 489.995 454.12 489.532 440.956C489.096 428.543 496.564 417.055 507.794 412.868C511.143 411.62 514.568 410.729 518.719 410.69ZM628.775 190.823C627.799 191.331 626.773 191.661 626.002 192.299C613.596 202.572 604.189 215.341 595.667 228.847C593.936 231.589 595.483 233.046 597.584 234.445C602.158 237.491 605.905 241.432 610.046 246.257C610.899 247.445 611.79 248.609 612.598 249.827C614.466 252.648 616.113 255.395 620.43 254.735C624.656 254.088 624.928 250.794 625.797 247.923C630.625 231.977 633.056 215.729 631.561 199.029C631.302 196.149 631.211 193.213 628.775 190.823Z" fill="#B06A47"/>
</svg>